# xmcd
#
# Track frame offsets:
# 150
# 33131
# 78171
# 109235
# 140492
# 175229
# 210940
# 237520
# 270816
# 298971
#
# Disc length: 4360 seconds
#
#
# Revision: 0
# Processed by: cddbd v1.5.1PL2 Copyright (c) Steve Scherf et al.
# Submitted via: FreeRIP 2.70 
#
DISCID=8411060a
DTITLE=Ouvir e Crer - Voltados para o Trono
DYEAR=1900
DGENRE=Gospel
TTITLE0=Imutavel és
TTITLE1=Leva-me para dançar
TTITLE2=Voltados para o trono
TTITLE3=Lança sobre mim teu olhar
TTITLE4=Monte  de mirra
TTITLE5=Espontâneo
TTITLE6=Toca-me com a brasa
TTITLE7=Só o Espírito
TTITLE8=Na intimidade
TTITLE9=Fiel amigo
EXTD=
EXTT0=
EXTT1=
EXTT2=
EXTT3=
EXTT4=
EXTT5=
EXTT6=
EXTT7=
EXTT8=
EXTT9=
PLAYORDER=
